<svg width="21" height="20" viewBox="0 0 21 20" fill="none" xmlns="http://www.w3.org/2000/svg">
  <circle cx="10.5" cy="10" r="10" fill="var(--brand-primary)" />
  <path
    d="M6.5 11.3077L8.18 13.4677C8.23669 13.5413 8.30933 13.6012 8.39246 13.6428C8.47559 13.6843 8.56706 13.7065 8.66 13.7077C8.75144 13.7088 8.84197 13.6894 8.925 13.6511C9.00803 13.6128 9.08148 13.5564 9.14 13.4862L14.5 7"
    fill="var(--brand-primary)" />
  <path
    d="M6.5 11.3077L8.18 13.4677C8.23669 13.5413 8.30933 13.6012 8.39246 13.6428C8.47559 13.6843 8.56706 13.7065 8.66 13.7077C8.75144 13.7088 8.84197 13.6894 8.925 13.6511C9.00803 13.6128 9.08148 13.5564 9.14 13.4862L14.5 7"
    stroke="white" stroke-width="2" stroke-linecap="round" stroke-linejoin="round" />
</svg>