<svg width="25" height="27" viewBox="0 0 25 27" fill="none"
    xmlns="http://www.w3.org/2000/svg">
    <path d="M8.2334 5.79973C8.2334 6.93132 8.68292 8.01656 9.48307 8.81671C10.2832 9.61686 11.3685 10.0664 12.5001 10.0664C13.6316 10.0664 14.7169 9.61686 15.517 8.81671C16.3172 8.01656 16.7667 6.93132 16.7667 5.79973C16.7667 4.66815 16.3172 3.58291 15.517 2.78275C14.7169 1.9826 13.6316 1.53308 12.5001 1.53308C11.3685 1.53308 10.2832 1.9826 9.48307 2.78275C8.68292 3.58291 8.2334 4.66815 8.2334 5.79973V5.79973Z" stroke="#7487A4" stroke-width="2.5" stroke-linecap="round" stroke-linejoin="round"/>
    <path d="M1.8335 12.1997H23.1668" stroke="#7487A4" stroke-width="2.5" stroke-linecap="round" stroke-linejoin="round"/>
    <path d="M3.9668 24.9997L12.5001 18.5997L21.0334 24.9997" stroke="#7487A4" stroke-width="2.5" stroke-linecap="round" stroke-linejoin="round"/>
    <path d="M12.5 10.0666V18.5999" stroke="#7487A4" stroke-width="2.5" stroke-linecap="round" stroke-linejoin="round"/>
</svg>
